<svg width="16" height="14" viewBox="0 0 16 14" fill="none" xmlns="http://www.w3.org/2000/svg">
<path fill-rule="evenodd" clip-rule="evenodd" d="M14.5776 5.69749C14.7172 6.23634 14.7879 6.7911 14.7879 7.35344C14.7879 10.7976 12.1294 13.6415 8.72727 14V10.9476L9.29489 10.6681C9.65416 10.4911 9.79981 10.061 9.62007 9.70716C9.44053 9.35334 9.00359 9.2099 8.64451 9.38691L8 9.70416L7.35549 9.38672C6.99622 9.2099 6.55947 9.35334 6.37993 9.70697C6.20019 10.0608 6.34584 10.4911 6.70512 10.6679L7.27273 10.9476V14C3.87064 13.6415 1.21212 10.7976 1.21212 7.35349C1.21212 6.79114 1.28276 6.23639 1.42235 5.69753C0.551322 5.13084 0 4.15646 0 3.10373C0 1.39238 1.41382 0 3.15152 0C4.09925 0 4.97653 0.413321 5.56781 1.11056C6.34128 0.816948 7.15661 0.668495 8 0.668495C8.84339 0.668495 9.65872 0.816948 10.4322 1.11056C11.0235 0.413321 11.9008 0 12.8485 0C14.5862 0 16 1.39238 16 3.10373C16 4.15646 15.4487 5.13084 14.5776 5.69749ZM10.0035 7.01112C9.96233 7.10097 9.93939 7.20069 9.93939 7.30569C9.93939 7.62878 10.1565 7.90186 10.455 7.99113C10.6362 8.12252 10.859 8.2 11.1 8.2C11.7075 8.2 12.2 7.70751 12.2 7.1C12.2 6.49249 11.7075 6 11.1 6C10.5224 6 10.0488 6.44517 10.0035 7.01112ZM6.2 7.1C6.2 7.70751 5.70751 8.2 5.1 8.2C4.49249 8.2 4 7.70751 4 7.1C4 6.49249 4.49249 6 5.1 6C5.70751 6 6.2 6.49249 6.2 7.1ZM4.9 3L4.91467 3.00006C4.70876 2.41743 4.15313 2 3.5 2C2.67157 2 2 2.67157 2 3.5C2 4.15313 2.41743 4.70876 3.00006 4.91467L3 4.9C3 3.85066 3.85066 3 4.9 3ZM11 3.00006L11.0147 3C12.064 3 12.9147 3.85066 12.9147 4.9L12.9146 4.91467C13.4972 4.70876 13.9147 4.15313 13.9147 3.5C13.9147 2.67157 13.2431 2 12.4147 2C11.7615 2 11.2059 2.41743 11 3.00006Z" fill="#2B2B2B"/>
</svg>
