<svg width="14" height="15" viewBox="0 0 14 15" fill="none" xmlns="http://www.w3.org/2000/svg">
<path fill-rule="evenodd" clip-rule="evenodd" d="M13 0H1C0.447715 0 0 0.447715 0 1V12.75C0 13.3023 0.447716 13.75 1 13.75H13C13.5523 13.75 14 13.3023 14 12.75V1C14 0.447715 13.5523 0 13 0ZM9.856 6.20846C11.1351 6.20846 12.1721 5.19004 12.1721 3.93376C12.1721 2.67748 11.1351 1.65906 9.856 1.65906C8.57688 1.65906 7.53994 2.67748 7.53994 3.93376C7.53994 5.19004 8.57688 6.20846 9.856 6.20846ZM6.46005 3.93376C6.46005 5.19004 5.42312 6.20846 4.14399 6.20846C2.86487 6.20846 1.82793 5.19004 1.82793 3.93376C1.82793 2.67748 2.86487 1.65906 4.14399 1.65906C5.42312 1.65906 6.46005 2.67748 6.46005 3.93376ZM9.856 12.091C11.1351 12.091 12.1721 11.0726 12.1721 9.81633C12.1721 8.56004 11.1351 7.54163 9.856 7.54163C8.57688 7.54163 7.53994 8.56004 7.53994 9.81633C7.53994 11.0726 8.57688 12.091 9.856 12.091ZM6.46005 9.81633C6.46005 11.0726 5.42312 12.091 4.14399 12.091C2.86487 12.091 1.82793 11.0726 1.82793 9.81633C1.82793 8.56004 2.86487 7.54163 4.14399 7.54163C5.42312 7.54163 6.46005 8.56004 6.46005 9.81633Z" fill="#2B2B2B"/>
<rect x="2.03636" y="12" width="2.03636" height="3" rx="1" fill="#2B2B2B"/>
<rect x="6.10909" y="12" width="2.03636" height="3" rx="1" fill="#2B2B2B"/>
<rect x="10.1818" y="12" width="2.03636" height="3" rx="1" fill="#2B2B2B"/>
</svg>
