<svg width="15" height="22" viewBox="0 0 15 22" fill="none" xmlns="http://www.w3.org/2000/svg">
<path d="M8.84277 10.8926L8.73985 10.4033L8.73948 10.4034L8.84277 10.8926ZM12.8791 4.95435L13.3648 4.83543L13.3647 4.83497L12.8791 4.95435ZM6.43514 1.18205L6.30764 0.698577L6.30743 0.698633L6.43514 1.18205ZM7.01063 3.65756L7.13684 4.14137L7.13806 4.14105L7.01063 3.65756ZM10.2068 5.41763L10.6877 5.28075L10.6876 5.28026L10.2068 5.41763ZM8.35142 8.39328L8.23006 7.90823L8.22984 7.90829L8.35142 8.39328ZM11.373 11.6839L11.1329 11.2453L11.1313 11.2462L11.373 11.6839ZM4.072 11.7385L3.83614 12.1793L3.83731 12.18L4.072 11.7385ZM11.7122 11.4722L11.9888 11.8888L11.9888 11.8888L11.7122 11.4722ZM12.9394 11.0376L12.9653 10.5383L12.9635 10.5382L12.9394 11.0376ZM12.4298 14.2015L12.6418 14.6544L12.6421 14.6542L12.4298 14.2015ZM10.1506 14.9793L10.2445 15.4704L10.2445 15.4704L10.1506 14.9793ZM9.02354 15.2397L8.88764 14.7585L8.28418 14.9289L8.5847 15.4793L9.02354 15.2397ZM11.7888 17.8694L11.4568 18.2433L11.4568 18.2433L11.7888 17.8694ZM12.7067 18.6924L12.3667 19.059L12.3668 19.0591L12.7067 18.6924ZM11.599 21.0615L11.5471 21.5588L11.5478 21.5589L11.599 21.0615ZM7.72418 17.9027L8.09693 17.5694L7.84952 17.2927L7.51302 17.4494L7.72418 17.9027ZM5.98594 19.3679L5.63561 19.0111L5.63561 19.0111L5.98594 19.3679ZM3.79175 21.0514L3.71736 20.557L3.71724 20.557L3.79175 21.0514ZM2.69067 18.5964L3.02513 18.9681L3.02836 18.9652L2.69067 18.5964ZM6.33066 15.2629L6.66835 15.6316L7.20705 15.1383L6.55218 14.8146L6.33066 15.2629ZM5.28732 15.0005L5.19103 15.4911L5.19103 15.4911L5.28732 15.0005ZM4.50734 14.8276L4.36444 15.3068L4.36535 15.307L4.50734 14.8276ZM2.61202 11.0427L2.65887 10.5449L2.658 10.5448L2.61202 11.0427ZM3.71531 11.5244L3.44855 11.9472L3.44855 11.9472L3.71531 11.5244ZM8.94569 11.3819C11.6268 10.8179 14.1845 8.18306 13.3648 4.83543L12.3935 5.07327C13.0413 7.71913 11.0352 9.92046 8.73985 10.4033L8.94569 11.3819ZM6.30743 0.698633C4.43359 1.19365 3.16937 2.19563 2.47369 3.43618C1.78163 4.67028 1.67821 6.0946 2.0381 7.39195C2.7594 9.9921 5.36251 12.1384 8.94606 11.3818L8.73948 10.4034C5.71896 11.0411 3.5949 9.26297 3.00172 7.12464C2.70437 6.05275 2.79689 4.90433 3.34591 3.92531C3.89131 2.95273 4.91332 2.10122 6.56284 1.66547L6.30743 0.698633ZM13.3647 4.83497C12.7354 2.27547 9.85528 -0.236936 6.30764 0.698577L6.56263 1.66552C9.47617 0.89722 11.8733 2.95779 12.3936 5.07373L13.3647 4.83497ZM7.13806 4.14105C8.43112 3.80025 9.46432 4.63895 9.72608 5.55501L10.6876 5.28026C10.2983 3.91786 8.77668 2.67502 6.8832 3.17407L7.13806 4.14105ZM8.22984 7.90829C6.84535 8.25538 5.90162 7.47755 5.62372 6.53335C5.48324 6.05604 5.51889 5.55111 5.74547 5.12876C5.96767 4.71456 6.39801 4.33412 7.13684 4.14137L6.88441 3.17375C5.90964 3.42805 5.23353 3.9677 4.86426 4.65603C4.49937 5.33621 4.45854 6.11623 4.66441 6.81569C5.0792 8.22503 6.51947 9.36802 8.47301 8.87827L8.22984 7.90829ZM9.72594 5.55451C10.0422 6.6655 9.2183 7.66097 8.23006 7.90823L8.47279 8.87833C9.83739 8.53689 11.2031 7.09116 10.6877 5.28075L9.72594 5.55451ZM11.1313 11.2462C9.0939 12.3712 6.37086 12.3942 4.30669 11.297L3.83731 12.18C6.19962 13.4357 9.28107 13.4102 11.6147 12.1216L11.1313 11.2462ZM11.4357 11.0557C11.3203 11.1323 11.227 11.1938 11.1329 11.2453L11.6131 12.1225C11.7509 12.0471 11.8797 11.9612 11.9888 11.8888L11.4357 11.0557ZM12.9635 10.5382C12.25 10.5036 11.7738 10.8312 11.4357 11.0557L11.9888 11.8888C12.3333 11.66 12.5616 11.5199 12.9152 11.537L12.9635 10.5382ZM12.6421 14.6542C13.5245 14.2403 14.1207 13.8045 14.471 13.3471C14.8357 12.8708 14.934 12.3652 14.7924 11.8969C14.6593 11.4571 14.3381 11.1278 14.0164 10.9132C13.6953 10.699 13.3106 10.5562 12.9653 10.5383L12.9134 11.5369C13.045 11.5438 13.2589 11.61 13.4614 11.7451C13.6634 11.8799 13.791 12.0403 13.8352 12.1864C13.8708 12.3041 13.8748 12.4808 13.677 12.7391C13.4648 13.0163 13.0305 13.3675 12.2175 13.7488L12.6421 14.6542ZM10.2445 15.4704C10.8714 15.3504 11.3651 15.2519 12.6418 14.6544L12.2179 13.7487C11.0247 14.3071 10.6115 14.382 10.0566 14.4882L10.2445 15.4704ZM9.15944 15.7208C9.62957 15.5881 9.9481 15.5271 10.2445 15.4704L10.0566 14.4882C9.75288 14.5463 9.4003 14.6137 8.88764 14.7585L9.15944 15.7208ZM12.1207 17.4955C11.5795 17.015 10.939 16.4463 10.4108 15.9558C10.1464 15.7102 9.91451 15.4882 9.73919 15.3091C9.65136 15.2194 9.58151 15.1442 9.53034 15.0847C9.4731 15.0182 9.45881 14.9935 9.46238 15L8.5847 15.4793C8.6346 15.5707 8.70771 15.6618 8.77216 15.7368C8.84268 15.8188 8.92882 15.9108 9.02451 16.0086C9.21624 16.2045 9.46152 16.4389 9.73023 16.6885C10.2682 17.1882 10.9177 17.7647 11.4568 18.2433L12.1207 17.4955ZM13.0468 18.3258C12.8418 18.1357 12.5043 17.8361 12.1207 17.4955L11.4568 18.2433C11.8447 18.5878 12.1718 18.8782 12.3667 19.059L13.0468 18.3258ZM11.5478 21.5589C12.3689 21.6434 13.1608 21.2688 13.5435 20.6203C13.7385 20.2898 13.8214 19.8936 13.7397 19.4788C13.6585 19.0669 13.4229 18.6745 13.0466 18.3257L12.3668 19.0591C12.6225 19.296 12.7264 19.5092 12.7586 19.6722C12.7901 19.8323 12.7601 19.9802 12.6822 20.1121C12.519 20.3887 12.1251 20.613 11.6502 20.5641L11.5478 21.5589ZM7.35142 18.2359C7.6021 18.5163 8.37992 19.2985 9.19755 20.0211C9.60713 20.3831 10.0369 20.7392 10.4228 21.0132C10.6156 21.15 10.8057 21.2723 10.983 21.3653C11.1501 21.4531 11.3483 21.5381 11.5471 21.5588L11.6509 20.5642C11.6531 20.5645 11.6366 20.5627 11.5968 20.5481C11.5587 20.5342 11.5092 20.5122 11.4479 20.48C11.3245 20.4152 11.1742 20.3202 11.0016 20.1977C10.6571 19.9532 10.2575 19.6233 9.85979 19.2718C9.0629 18.5675 8.31482 17.8131 8.09693 17.5694L7.35142 18.2359ZM6.33626 19.7246C6.65995 19.4068 6.96712 19.1053 7.25055 18.856C7.54125 18.6002 7.7702 18.4328 7.93533 18.3559L7.51302 17.4494C7.20978 17.5907 6.89075 17.8406 6.59 18.1052C6.28198 18.3762 5.95421 18.6983 5.63561 19.0111L6.33626 19.7246ZM3.86614 21.5459C4.09784 21.511 4.31932 21.4095 4.51529 21.2936C4.71571 21.1751 4.9193 21.0235 5.11887 20.8586C5.5162 20.5305 5.93935 20.1144 6.33627 19.7246L5.63561 19.0111C5.23022 19.4092 4.83958 19.7923 4.48204 20.0876C4.30418 20.2345 4.14507 20.3508 4.00632 20.4328C3.86312 20.5175 3.76897 20.5492 3.71736 20.557L3.86614 21.5459ZM2.35622 18.2248C1.95337 18.5873 1.70013 18.9951 1.60714 19.4219C1.51349 19.8517 1.59081 20.2652 1.78885 20.6107C2.17864 21.2908 3.00779 21.6752 3.86625 21.5458L3.71724 20.557C3.22871 20.6306 2.82274 20.4036 2.65645 20.1134C2.57646 19.9739 2.54549 19.8125 2.58422 19.6348C2.6236 19.454 2.74339 19.2216 3.02512 18.9681L2.35622 18.2248ZM5.99297 14.8941L2.35298 18.2277L3.02836 18.9652L6.66835 15.6316L5.99297 14.8941ZM5.19103 15.4911C5.40318 15.5328 5.60584 15.5726 5.77917 15.6134C5.96471 15.6571 6.06942 15.6915 6.10913 15.7111L6.55218 14.8146C6.39838 14.7386 6.19115 14.683 6.00827 14.64C5.81317 14.5941 5.59092 14.5505 5.3836 14.5098L5.19103 15.4911ZM4.36535 15.307C4.5913 15.374 4.90713 15.4354 5.19103 15.4911L5.3836 14.5098C5.08016 14.4503 4.81933 14.3986 4.64933 14.3482L4.36535 15.307ZM2.658 10.5448C2.14914 10.4978 1.62619 10.6567 1.22627 10.9483C0.824233 11.2414 0.499579 11.7075 0.5 12.2894C0.500423 12.874 0.828305 13.4403 1.44497 13.938C2.06017 14.4345 3.00504 14.9014 4.36444 15.3068L4.65024 14.3485C3.35663 13.9627 2.54811 13.5432 2.07303 13.1598C1.59942 12.7775 1.50013 12.4701 1.5 12.2887C1.49987 12.1047 1.60127 11.9125 1.81541 11.7563C2.03166 11.5986 2.31499 11.5174 2.56603 11.5405L2.658 10.5448ZM3.98208 11.1015C3.67135 10.9055 3.19862 10.5957 2.65887 10.5449L2.56517 11.5405C2.82393 11.5648 3.09074 11.7215 3.44855 11.9472L3.98208 11.1015ZM4.30787 11.2976C4.21282 11.2467 4.1096 11.1819 3.98208 11.1015L3.44855 11.9472C3.56878 12.0231 3.70355 12.1084 3.83614 12.1793L4.30787 11.2976Z" fill="#2B2B2B"/>
</svg>
